<?xml version="1.0" encoding="UTF-8" standalone="no"?>
<!-- Created with Inkscape (http://www.inkscape.org/) -->

<svg
   width="50.271053mm"
   height="16.07132mm"
   viewBox="0 0 50.271053 16.07132"
   version="1.1"
   id="svg5"
   xml:space="preserve"
   xmlns:inkscape="http://www.inkscape.org/namespaces/inkscape"
   xmlns:sodipodi="http://sodipodi.sourceforge.net/DTD/sodipodi-0.dtd"
   xmlns="http://www.w3.org/2000/svg"
   xmlns:svg="http://www.w3.org/2000/svg"><sodipodi:namedview
     id="namedview7"
     pagecolor="#ffffff"
     bordercolor="#000000"
     borderopacity="0.25"
     inkscape:showpageshadow="2"
     inkscape:pageopacity="0.0"
     inkscape:pagecheckerboard="0"
     inkscape:deskcolor="#d1d1d1"
     inkscape:document-units="mm"
     showgrid="false" /><defs
     id="defs2" /><g
     inkscape:label="Camada 1"
     inkscape:groupmode="layer"
     id="layer1"
     transform="translate(54.239316,-128.01608)"><path
       d="m -45.065751,139.3593 c -0.0882,0.72788 -0.529249,1.31084 -1.212423,1.60274 -0.380463,0.16261 -0.891304,0.2504 -1.295652,0.22282 -0.630774,-0.0241 -1.223377,-0.1775 -1.769622,-0.45792 -0.195144,-0.10024 -0.486053,-0.30038 -0.70943,-0.48783 -0.05658,-0.0474 -0.0633,-0.0777 -0.02586,-0.13083 0.02022,-0.0305 0.05748,-0.0855 0.139865,-0.20616 0.11948,-0.17507 0.134387,-0.19701 0.147826,-0.21754 0.03823,-0.0587 0.100338,-0.0638 0.161603,-0.0156 0.0064,0.005 0.0064,0.005 0.01129,0.009 0.01005,0.008 0.01005,0.008 0.03377,0.0262 0.024,0.0187 0.03823,0.0297 0.04399,0.0341 0.589103,0.46139 1.275212,0.72748 1.967872,0.75409 0.963693,-0.0131 1.656691,-0.44644 1.780859,-1.11178 0.136533,-0.73224 -0.438283,-1.36478 -1.562902,-1.71735 -0.351723,-0.11024 -1.240769,-0.46611 -1.404687,-0.56226 -0.769792,-0.45167 -1.129701,-1.04326 -1.078544,-1.77399 0.07837,-1.0129 1.01869,-1.76836 2.206833,-1.77342 0.531338,-0.001 1.061547,0.10933 1.570921,0.32397 0.18035,0.076 0.502371,0.25125 0.613551,0.33426 0.06403,0.047 0.07668,0.10183 0.03998,0.16096 -0.0205,0.0343 -0.05438,0.0886 -0.125804,0.20196 l -7.91e-4,10e-4 c -0.09401,0.14925 -0.09695,0.15391 -0.11852,0.18882 -0.03727,0.0567 -0.08108,0.062 -0.148278,0.0194 -0.545059,-0.36616 -1.149294,-0.55037 -1.813834,-0.56368 -0.827329,0.0164 -1.447431,0.50876 -1.488199,1.1795 -0.01084,0.60581 0.443535,1.0481 1.425014,1.38532 1.992265,0.6402 2.754659,1.39077 2.611181,2.57419 m -2.460418,-10.4582 c 1.297064,0 2.35432,1.23089 2.403783,2.77172 h -4.807511 c 0.04946,-1.54083 1.10672,-2.77172 2.403728,-2.77172 m 6.712706,3.0614 c 0,-0.15999 -0.128854,-0.28968 -0.287748,-0.28968 h -3.116093 c -0.07645,-2.03446 -1.528628,-3.6567 -3.308865,-3.6567 -1.780181,0 -3.232356,1.62224 -3.30881,3.6567 l -3.120554,5e-5 c -0.156465,0.003 -0.282439,0.13146 -0.282439,0.28963 0,0.008 2.82e-4,0.0151 8.47e-4,0.0225 h -0.0022 l 0.444834,9.80583 c 5.6e-5,0.0273 0.0011,0.0548 0.0031,0.0825 4.51e-4,0.006 9.59e-4,0.0125 0.0015,0.0186 l 9.59e-4,0.0207 0.0011,0.001 c 0.06759,0.68234 0.56279,1.23192 1.236138,1.25728 l 0.0015,10e-4 h 9.898647 c 0.0047,5e-5 0.0094,1.1e-4 0.01406,1.1e-4 0.0047,0 0.0094,-6e-5 0.01406,-1.1e-4 h 0.02106 l 4.52e-4,-4e-4 c 0.685093,-0.0187 1.240034,-0.57596 1.298645,-1.26672 l 3.39e-4,-3.4e-4 4.52e-4,-0.009 c 5.64e-4,-0.007 0.0011,-0.0145 0.0015,-0.0218 0.0011,-0.0174 0.0018,-0.0347 0.0021,-0.052 l 0.485375,-9.84454 h -3.39e-4 c 2.83e-4,-0.005 3.96e-4,-0.01 3.96e-4,-0.0149 m 32.9993873,6.39088 c 0.19072,-0.6221 0.7674,-1.03681 1.44032,-1.03681 0.64232,0 1.25389,0.43621 1.46515,1.03563 l 0.0145,0.0412 h -2.93233 z m 3.57258,0.90127 c 0.004,1.7e-4 0.004,1.7e-4 0.01,2.3e-4 0.006,-6e-5 0.006,-6e-5 0.0117,-2.3e-4 0.14037,-0.006 0.25151,-0.12612 0.25151,-0.27177 0,-0.007 -2.3e-4,-0.0131 -6.8e-4,-0.0229 1.1e-4,-0.002 1.1e-4,-0.005 1.1e-4,-0.0168 0,-1.37388 -1.07705,-2.48728 -2.40544,-2.48728 -1.32834,0 -2.40539,1.1134 -2.40539,2.48728 0,0.10242 0.006,0.20456 0.0179,0.30608 l 6.8e-4,0.005 0.004,0.0268 c 0.0662,0.49434 0.27708,0.94805 0.6102,1.3152 -1.6e-4,-1.7e-4 1.7e-4,1.7e-4 0.002,0.002 0.36937,0.40647 0.87087,0.6835 1.42706,0.7871 l 0.007,0.001 v -7.3e-4 l 0.0361,0.006 c 0.0186,0.003 0.0382,0.006 0.0644,0.0103 0.73207,0.088 1.38145,-0.0175 1.93132,-0.2944 0.13541,-0.0682 0.25716,-0.14351 0.36265,-0.22302 0.0339,-0.0256 0.0645,-0.0504 0.0909,-0.0736 0.0136,-0.012 0.0244,-0.022 0.0302,-0.0278 0.12406,-0.12782 0.1318,-0.17313 0.057,-0.28983 -0.0824,-0.13115 -0.1551,-0.24288 -0.21742,-0.33537 -0.0218,-0.0324 -0.0408,-0.06 -0.0567,-0.0829 -0.009,-0.0126 -0.009,-0.0126 -0.0144,-0.0205 -0.002,-0.003 -0.002,-0.003 -0.004,-0.005 l -6.8e-4,-0.001 c -0.0678,-0.0844 -0.11418,-0.0921 -0.18942,-0.0257 -0.008,0.007 -0.0348,0.0278 -0.0397,0.033 -0.52899,0.46973 -1.25135,0.62086 -1.97269,0.4699 -0.13434,-0.0361 -0.25998,-0.0819 -0.37569,-0.13718 -0.45194,-0.22663 -0.77215,-0.6304 -0.86454,-1.09777 l -0.007,-0.0369 z m -9.2964903,-0.90122 c 0.19072,-0.6221 0.76739,-1.03682 1.4403,-1.03682 0.64232,0 1.25388,0.43622 1.4652,1.03563 l 0.0144,0.0412 h -2.93225 z m 3.5725403,0.90127 c 0.004,1.7e-4 0.004,1.7e-4 0.01,2.2e-4 0.006,-5e-5 0.006,-5e-5 0.0117,-2.2e-4 0.14037,-0.006 0.25151,-0.12613 0.25151,-0.27178 0,-0.007 -2.3e-4,-0.0131 -6.8e-4,-0.0229 1.1e-4,-0.002 1.1e-4,-0.005 1.1e-4,-0.0168 0,-1.37388 -1.0770403,-2.48727 -2.4054103,-2.48727 -1.32827,0 -2.40542,1.11339 -2.40542,2.48727 0,0.10243 0.006,0.20457 0.018,0.30609 l 6.8e-4,0.005 0.004,0.0268 c 0.0661,0.49434 0.27707,0.94805 0.6102,1.31519 -1.7e-4,-1.7e-4 1.7e-4,1.7e-4 0.002,0.002 0.36936,0.40648 0.87085,0.6835 1.42704,0.78711 l 0.007,0.001 v -7.4e-4 l 0.0361,0.006 c 0.0186,0.003 0.0382,0.006 0.0645,0.0103 0.73206,0.088 1.38143,-0.0175 1.93124,-0.2944 0.13541,-0.0682 0.25715,-0.1435 0.36264,-0.22302 0.0339,-0.0256 0.0645,-0.0504 0.0909,-0.0736 0.0136,-0.012 0.0244,-0.022 0.0302,-0.0278 0.12407,-0.12781 0.1318,-0.17313 0.057,-0.28983 -0.0824,-0.13114 -0.1551,-0.24288 -0.21741,-0.33537 -0.0218,-0.0324 -0.0407,-0.06 -0.0567,-0.0829 -0.009,-0.0126 -0.009,-0.0126 -0.0144,-0.0205 -0.002,-0.003 -0.002,-0.003 -0.004,-0.005 l -6.2e-4,-0.001 c -0.0678,-0.0844 -0.11424,-0.0921 -0.18948,-0.0257 -0.008,0.007 -0.0348,0.0278 -0.0397,0.033 -0.52893,0.46974 -1.25134,0.62086 -1.97267,0.4699 -0.13434,-0.0361 -0.25998,-0.0819 -0.37569,-0.13718 -0.45193,-0.22663 -0.77208,-0.6304 -0.86447,-1.09776 l -0.007,-0.0369 z m -7.9409503,1.36988 c -0.89463,0 -1.62634,-0.7093 -1.6488,-1.59819 v -0.0837 c 0.0222,-0.88746 0.75417,-1.59688 1.6488,-1.59688 0.91081,0 1.6492,0.73397 1.6492,1.63937 0,0.9054 -0.73839,1.63937 -1.6492,1.63937 m 4.6e-4,-4.14844 c -0.58679,0 -1.14745,0.19986 -1.59806,0.56641 l -0.0512,0.0416 v -0.45877 c 0,-0.12234 -0.0263,-0.14927 -0.15012,-0.14927 h -0.57587 c -0.12544,0 -0.15018,0.0249 -0.15018,0.14927 v 7.31311 c 0,0.12011 0.028,0.14927 0.15018,0.14927 h 0.57587 c 0.12263,0 0.15012,-0.0285 0.15012,-0.14927 v -3.04979 l 0.0512,0.0416 c 0.45066,0.36661 1.01133,0.56646 1.59806,0.56646 1.39473,0 2.52538,-1.12393 2.52538,-2.51037 0,-1.38638 -1.13065,-2.51032 -2.52538,-2.51032 m -5.93078,4.09241 c -0.91266,0 -1.65253,-0.72752 -1.65253,-1.62523 0,-0.8977 0.73992,-1.62528 1.65253,-1.62528 0.91251,0 1.65243,0.72758 1.65243,1.62528 0,0.89765 -0.73987,1.62523 -1.65243,1.62523 m 5.1e-4,-4.11264 c -1.39749,0 -2.53022,1.11424 -2.53022,2.48866 0,1.37436 1.13273,2.48865 2.53022,2.48865 1.39744,0 2.53005,-1.11429 2.53005,-2.48865 0,-1.37442 -1.13255,-2.48866 -2.53005,-2.48866 m -5.64029,0.0553 c -0.51016,0 -1.00381,0.16402 -1.41335,0.46715 l -0.0498,0.0369 v -3.39634 c 0,-0.11257 -0.0369,-0.14932 -0.14949,-0.14932 h -0.60279 c -0.12172,0 -0.14955,0.0291 -0.14955,0.14932 v 7.7479 c 0,0.1173 0.03,0.14943 0.14955,0.14943 h 0.60279 c 0.11182,0 0.14949,-0.0386 0.14949,-0.14943 v -2.5307 c 0.006,-0.79666 0.65964,-1.43967 1.46314,-1.43967 0.80554,0 1.45966,0.64615 1.46308,1.44543 v 2.52494 c 0,0.12818 0.0213,0.14937 0.14954,0.14937 h 0.60131 c 0.12747,0 0.14955,-0.0218 0.14955,-0.14937 v -2.53235 c -0.005,-1.27742 -1.06998,-2.32321 -2.36348,-2.32321 m -8.399456,3.59958 -0.0014,0.002 c -0.08596,0.1302 -0.121953,0.18498 -0.142071,0.21642 -0.06776,0.10086 -0.05934,0.14582 0.04414,0.23328 0.241474,0.19469 0.551893,0.39914 0.761326,0.50153 0.582692,0.28493 1.212063,0.43552 1.879015,0.44914 0.430845,0.0217 0.971946,-0.0807 1.374876,-0.26041 0.72945,-0.32541 1.19409,-0.95964 1.27552,-1.74082 0.1319,-1.26584 -0.6917,-2.05712 -2.813093,-2.69482 l -5.65e-4,-1.7e-4 c -0.98839,-0.31876 -1.45269,-0.74253 -1.45286,-1.33419 0.0291,-0.65392 0.635418,-1.14245 1.453425,-1.17293 0.658927,0.002 1.241503,0.17663 1.813913,0.545 0.12071,0.0732 0.17637,0.0597 0.25753,-0.0456 0.009,-0.0156 0.0353,-0.0532 0.14376,-0.20904 l 3.4e-4,-5.1e-4 c 0.10133,-0.14554 0.13467,-0.19412 0.14297,-0.20848 0.0684,-0.12868 0.0586,-0.17828 -0.0648,-0.26581 -0.12155,-0.0871 -0.46396,-0.26523 -0.65977,-0.34339 -0.5446,-0.21728 -1.10763,-0.32279 -1.668,-0.3119 -1.275244,0.0277 -2.269794,0.85707 -2.335347,1.9451 -0.04159,0.78589 0.357267,1.41785 1.190645,1.88504 0.23362,0.12334 1.087851,0.44624 1.486541,0.563 1.133681,0.33198 1.724741,0.94272 1.602621,1.66328 -0.11094,0.65466 -0.79688,1.09007 -1.759441,1.11987 -0.698033,-0.0145 -1.401321,-0.27035 -2.011987,-0.72925 -0.0031,-0.002 -0.01854,-0.0137 -0.04707,-0.035 -0.04012,-0.0299 -0.04012,-0.0299 -0.04611,-0.0344 -0.124495,-0.0859 -0.197734,-0.0788 -0.273742,0.0344 -0.0092,0.014 -0.103699,0.15779 -0.150322,0.2284"
       id="path17"
       style="fill:#ffffff;stroke-width:0.264583"
       /></g></svg>
